<svg width="26" height="25" viewBox="0 0 26 25" fill="none" xmlns="http://www.w3.org/2000/svg">
<path d="M6.41782 19.6115C5.66264 18.8642 5.04428 17.9903 4.59082 17.0295L2.47482 19.1405C1.62682 19.9905 1.93882 21.5345 3.21782 22.8125C3.68686 23.2965 4.26053 23.6666 4.89482 23.8945C5.14842 23.9806 5.41402 24.0262 5.68182 24.0295C6.13202 24.0414 6.56783 23.8704 6.88982 23.5555L9.00082 21.4395C8.03821 20.9882 7.16358 20.3692 6.41782 19.6115V19.6115Z" fill="#334155"/>
<path d="M12.0338 13.9965C10.9195 12.9044 10.0499 11.588 9.48283 10.1345L6.59483 13.0205C5.96432 13.7521 5.80884 14.7802 6.19483 15.6655C6.54118 16.6238 7.10255 17.49 7.83583 18.1975C8.77323 19.2472 10.0758 19.8995 11.4778 20.0215C12.0477 20.0422 12.6014 19.8303 13.0118 19.4345L15.8948 16.5525C14.4432 15.9799 13.1279 15.1092 12.0338 13.9965V13.9965Z" fill="#475569"/>
<path fill-rule="evenodd" clip-rule="evenodd" d="M20.1669 0.276506C21.4486 0.742387 22.6071 1.49485 23.5539 2.47651C25.9519 4.87451 26.7009 7.74751 25.2859 9.15651L20.1299 14.3125C19.63 14.7959 18.9548 15.0548 18.2599 15.0295C17.7748 15.0233 17.2937 14.9399 16.8349 14.7825C15.5531 14.3166 14.3946 13.5642 13.4479 12.5825C11.0499 10.1845 10.3049 7.31151 11.7149 5.90051L16.8719 0.744506C17.7862 -0.0378144 19.0708 -0.220261 20.1669 0.276506ZM22.6159 7.72651C23.2779 7.94451 23.7239 7.89151 23.8719 7.74451C24.2459 7.36951 23.8719 5.62351 22.1419 3.89051C21.4135 3.13264 20.5252 2.54676 19.5419 2.17551C19.2873 2.08641 19.0205 2.03717 18.7509 2.02951C18.5855 2.01351 18.4202 2.05948 18.2869 2.15851C17.9119 2.52951 18.2859 4.27951 20.0159 6.01151C20.7435 6.77023 21.6319 7.35625 22.6159 7.72651Z" fill="#94A3B8"/>
</svg>
