<svg width="24" height="24" viewBox="0 0 24 24" fill="none" xmlns="http://www.w3.org/2000/svg">
<path fill-rule="evenodd" clip-rule="evenodd" d="M18 12C18 10.3431 19.3432 9 21 9C22.6569 9 24 10.3431 24 12C24 13.6569 22.6569 15 21 15C20.5543 14.9978 20.1148 14.8953 19.7142 14.7001L12.7071 21.7071L11.2929 20.2929L18.2999 13.2859C18.1047 12.8852 18.0022 12.4457 18 12Z" fill="#475569"/>
<path fill-rule="evenodd" clip-rule="evenodd" d="M10.7142 18.2999L4.70712 12.2929L3.29291 13.7071L9.29994 19.7142C9.10472 20.1148 9.00221 20.5543 9.00001 21C9.00001 22.6569 10.3432 24 12 24C13.6569 24 15 22.6569 15 21C15 19.3432 13.6569 18 12 18C11.5543 18.0022 11.1148 18.1047 10.7142 18.2999Z" fill="#94A3B8"/>
<path fill-rule="evenodd" clip-rule="evenodd" d="M12.7071 3.70712L11.2929 2.29291L4.28586 9.29994C3.88518 9.10472 3.4457 9.00221 3 9.00001C1.34315 9.00001 0 10.3432 0 12C0 13.6569 1.34315 15 3 15C4.65685 15 6 13.6569 6 12C5.99781 11.5543 5.89529 11.1148 5.70007 10.7142L12.7071 3.70712Z" fill="#475569"/>
<path fill-rule="evenodd" clip-rule="evenodd" d="M12 6C12.4457 5.99781 12.8852 5.89529 13.2859 5.70007L18.2924 10.7066C18.588 10.0888 19.0888 9.588 19.7066 9.29237L14.7001 4.28586C14.8953 3.88518 14.9978 3.4457 15 3C15 1.34315 13.6569 0 12 0C10.3431 0 9 1.34315 9 3C9 4.65685 10.3431 6 12 6Z" fill="#94A3B8"/>
</svg>
